# xmcd
#
# Track frame offsets:
#       150
#       14612
#       31229
#       47903
#       69219
#       90445
#       109058
#       125058
#       148367
#       165105
#       179929
#       192554
#       203510
#       212168
#       221024
#       249890
#
# Disc length: 3538 seconds
#
# Revision: 0
# Processed by: cddbd v1.5.1PL0 Copyright (c) Steve Scherf et al.
# Submitted via: WaveLab 4.01
#
DISCID=ec0dd010
DTITLE=KING JAMES and TROUBLE  BLUES BAND - Taste It !
DYEAR=2005
DGENRE=
TTITLE0=Some Kind Of Wonderful
TTITLE1=Can´t Get Enough
TTITLE2=Start It Up
TTITLE3=Testify
TTITLE4=Unchain My Heart
TTITLE5=Traveller´s Blues
TTITLE6=Mr. Brandt
TTITLE7=Drinking Again
TTITLE8=Someday
TTITLE9=Going Down
TTITLE10=Back In The Night
TTITLE11=Down By The Doctor´s
TTITLE12=Crossroads Blues
TTITLE13=Crossroads
TTITLE14=Made Of The Hill
TTITLE15=Taste It
EXTD=
EXTT0=
EXTT1=
EXTT2=
EXTT3=
EXTT4=
EXTT5=
EXTT6=
EXTT7=
EXTT8=
EXTT9=
EXTT10=
EXTT11=
EXTT12=
EXTT13=
EXTT14=
EXTT15=
PLAYORDER=
